<svg id="Layer_1" data-name="Layer 1" xmlns="http://www.w3.org/2000/svg" viewBox="0 0 854.29 254.9"><defs><style>.cls-1{fill:#295fa6;}.cls-2{font-size:109px;font-family:Roboto-Bold, Roboto;font-weight:700;}.cls-3,.cls-4{font-family:Roboto-Regular, Roboto;font-weight:400;}.cls-4{letter-spacing:-0.01em;}</style></defs><path class="cls-1" d="M58.38,42.7C56.59,98.38,54.82,153.24,53,208.62c1.31-.54,2.12-.81,2.88-1.19q25.2-12.83,50.4-25.65c11.29-5.73,22.61-11.39,33.9-17.13q25.2-12.79,50.36-25.67c5.86-3,11.7-6,17.53-9.08a17.73,17.73,0,0,0,1.81-1.32L61.13,41.13,71.4,35.55q17.07-9.31,34.13-18.66c1.66-.91,3.06-1.38,5-.32,17.27,9.57,34.6,19,51.89,28.55,14.92,8.22,29.81,16.51,44.76,24.68a4.81,4.81,0,0,1,3,4.84q-.15,53,0,106a4.38,4.38,0,0,1-2.57,4.47c-13.75,7.47-27.45,15.05-41.15,22.62-6.54,3.62-13,7.32-19.58,10.92-12.21,6.73-24.43,13.47-36.74,20a5,5,0,0,1-4.07-.29c-10.1-5.42-20.12-11-30.15-16.56Q51.91,208.53,28,195.28c-6.19-3.41-12.42-6.77-18.69-10a4.77,4.77,0,0,1-3-4.86q.13-52.82,0-105.65a4.82,4.82,0,0,1,3-4.88q18.17-9.8,36.23-19.77C49.56,47.86,53.56,45.47,58.38,42.7Z"/><text class="cls-2" transform="translate(215.3 166.3) scale(0.91 1)">Random<tspan class="cls-3" x="406.46" y="0">S</tspan><tspan class="cls-4" x="471.13" y="0">t</tspan><tspan class="cls-3" x="505.67" y="0">ock</tspan></text></svg>